<svg width="235" height="243" viewBox="0 0 235 243" fill="none" xmlns="http://www.w3.org/2000/svg">
<g clip-path="url(#clip0_529_3192)">
<path d="M22.599 204.706L20.5293 196.291C16.8597 194.688 13.1053 193.299 9.28393 192.132L9.02269 196.043L7.96323 191.734C3.2241 190.337 0 189.723 0 189.723C0 189.723 4.3539 206.796 13.4889 219.848L24.132 221.776L15.8637 223.005C17.0128 224.43 18.2477 225.78 19.561 227.045C32.8483 239.761 47.6482 245.595 52.617 240.075C57.5858 234.556 50.8423 219.775 37.555 207.061C33.4358 203.119 28.2613 199.956 23.0814 197.465L22.599 204.706Z" fill="#F2F2F2"/>
<path d="M42.2818 195.566L44.7295 187.259C42.3922 183.931 39.8747 180.741 37.189 177.705L35.0045 180.914L36.2577 176.661C32.9004 172.941 30.4487 170.697 30.4487 170.697C30.4487 170.697 25.6168 187.633 26.8914 203.674L35.036 210.996L27.3403 207.642C27.6096 209.475 27.9904 211.288 28.4806 213.072C33.48 231.038 43.2242 243.919 50.2447 241.842C57.2653 239.766 58.904 223.518 53.9045 205.552C52.3548 199.983 49.5109 194.517 46.3253 189.626L42.2818 195.566Z" fill="#F2F2F2"/>
<path d="M163.982 57.5668H162.691V21.1043C162.691 18.3329 162.161 15.5886 161.133 13.0281C160.104 10.4676 158.596 8.14104 156.695 6.18132C154.794 4.2216 152.538 2.66706 150.054 1.60647C147.57 0.545878 144.908 0 142.22 0H67.2865C61.8574 0 56.6506 2.22349 52.8116 6.18132C48.9726 10.1392 46.8159 15.5071 46.8159 21.1043V221.144C46.8159 223.915 47.3454 226.66 48.3741 229.22C49.4029 231.781 50.9108 234.107 52.8116 236.067C54.7125 238.027 56.9692 239.581 59.4528 240.642C61.9364 241.702 64.5983 242.248 67.2865 242.248H142.22C147.649 242.248 152.856 240.025 156.695 236.067C160.534 232.109 162.69 226.741 162.69 221.144V83.5216H163.981L163.982 57.5668Z" fill="#1A4E90"/>
<path d="M143.046 5.48877H133.266C133.715 6.62577 133.887 7.85938 133.766 9.08091C133.644 10.3024 133.233 11.4744 132.568 12.4935C131.904 13.5127 131.007 14.3477 129.956 14.925C128.904 15.5024 127.731 15.8044 126.54 15.8043H83.6118C82.4208 15.8042 81.2481 15.5022 80.197 14.9248C79.1458 14.3474 78.2486 13.5124 77.5842 12.4933C76.9199 11.4742 76.5088 10.3022 76.3873 9.08075C76.2657 7.85927 76.4374 6.62572 76.8873 5.48877H67.7516C63.6972 5.48877 59.8088 7.14925 56.9419 10.1049C54.075 13.0606 52.4644 17.0693 52.4644 21.2493V220.998C52.4644 225.178 54.075 229.187 56.9419 232.143C59.8088 235.098 63.6972 236.759 67.7516 236.759H143.046C147.101 236.759 150.989 235.098 153.856 232.143C156.723 229.187 158.333 225.178 158.333 220.998V21.249C158.333 17.0691 156.723 13.0604 153.856 10.1048C150.989 7.1492 147.101 5.48877 143.046 5.48877Z" fill="white"/>
<path d="M95.8042 85.0583C95.804 83.662 96.1605 82.2904 96.8379 81.0813C97.5152 79.8723 98.4896 78.8685 99.6628 78.171C98.4901 77.4728 97.1599 77.1051 95.8057 77.105C94.4515 77.1048 93.1211 77.4722 91.9483 78.1702C90.7755 78.8681 89.8016 79.8721 89.1244 81.0811C88.4473 82.2902 88.0908 83.6617 88.0908 85.0578C88.0908 86.4539 88.4473 87.8254 89.1244 89.0344C89.8016 90.2435 90.7755 91.2474 91.9483 91.9454C93.1211 92.6434 94.4515 93.0107 95.8057 93.0106C97.1599 93.0104 98.4901 92.6427 99.6628 91.9445C98.4896 91.2472 97.5153 90.2436 96.838 89.0347C96.1606 87.8259 95.8041 86.4544 95.8042 85.0583Z" fill="#CCCCCC"/>
<path d="M105.502 85.0583C105.501 83.662 105.858 82.2903 106.535 81.0813C107.213 79.8722 108.187 78.8685 109.36 78.171C108.188 77.4728 106.857 77.1051 105.503 77.105C104.149 77.1048 102.819 77.4722 101.646 78.1702C100.473 78.8681 99.4991 79.8721 98.8219 81.0811C98.1448 82.2902 97.7883 83.6617 97.7883 85.0578C97.7883 86.4539 98.1448 87.8254 98.8219 89.0344C99.4991 90.2435 100.473 91.2474 101.646 91.9454C102.819 92.6434 104.149 93.0107 105.503 93.0106C106.857 93.0104 108.188 92.6427 109.36 91.9445C108.187 91.2472 107.213 90.2436 106.535 89.0347C105.858 87.8259 105.502 86.4544 105.502 85.0583Z" fill="#CCCCCC"/>
<path d="M114.979 93.0111C119.239 93.0111 122.693 89.4505 122.693 85.0583C122.693 80.6661 119.239 77.1055 114.979 77.1055C110.719 77.1055 107.265 80.6661 107.265 85.0583C107.265 89.4505 110.719 93.0111 114.979 93.0111Z" fill="#2888FF"/>
<path d="M127.871 109.898H82.9123C82.4843 109.897 82.0739 109.722 81.7713 109.41C81.4686 109.098 81.2984 108.675 81.2979 108.233V61.8827C81.2984 61.4414 81.4686 61.0183 81.7713 60.7063C82.0739 60.3943 82.4843 60.2188 82.9123 60.2183H127.871C128.299 60.2188 128.709 60.3943 129.012 60.7063C129.315 61.0183 129.485 61.4414 129.486 61.8827V108.233C129.485 108.675 129.315 109.098 129.012 109.41C128.709 109.722 128.299 109.897 127.871 109.898ZM82.9123 60.8844C82.6555 60.8847 82.4092 60.99 82.2276 61.1772C82.0461 61.3644 81.9439 61.6182 81.9437 61.883V108.234C81.9439 108.498 82.0461 108.752 82.2276 108.939C82.4092 109.127 82.6555 109.232 82.9123 109.232H127.871C128.128 109.232 128.374 109.127 128.556 108.939C128.737 108.752 128.839 108.498 128.84 108.234V61.883C128.839 61.6182 128.737 61.3644 128.556 61.1772C128.374 60.99 128.128 60.8847 127.871 60.8844H82.9123Z" fill="#CCCCCC"/>
<path d="M137.91 145.428H68.9565V146.094H137.91V145.428Z" fill="#CCCCCC"/>
<path d="M71.1341 141.271C72.3368 141.271 73.3117 140.266 73.3117 139.026C73.3117 137.786 72.3368 136.781 71.1341 136.781C69.9315 136.781 68.9565 137.786 68.9565 139.026C68.9565 140.266 69.9315 141.271 71.1341 141.271Z" fill="#93C3FF"/>
<path d="M137.91 167.876H68.9565V168.542H137.91V167.876Z" fill="#CCCCCC"/>
<path d="M71.1341 163.72C72.3368 163.72 73.3117 162.715 73.3117 161.475C73.3117 160.235 72.3368 159.23 71.1341 159.23C69.9315 159.23 68.9565 160.235 68.9565 161.475C68.9565 162.715 69.9315 163.72 71.1341 163.72Z" fill="#93C3FF"/>
<path d="M136.648 193.44H114.857C114.48 193.44 114.119 193.285 113.853 193.011C113.587 192.737 113.437 192.365 113.437 191.976V184.102C113.437 183.714 113.587 183.342 113.853 183.068C114.119 182.793 114.48 182.639 114.857 182.639H136.648C137.024 182.639 137.385 182.793 137.651 183.068C137.918 183.342 138.067 183.714 138.068 184.102V191.976C138.067 192.365 137.918 192.737 137.651 193.011C137.385 193.285 137.024 193.44 136.648 193.44Z" fill="#93C3FF"/>
<path d="M78.2372 141.271C79.4398 141.271 80.4147 140.266 80.4147 139.026C80.4147 137.786 79.4398 136.781 78.2372 136.781C77.0345 136.781 76.0596 137.786 76.0596 139.026C76.0596 140.266 77.0345 141.271 78.2372 141.271Z" fill="#93C3FF"/>
<path d="M85.3404 141.271C86.5431 141.271 87.518 140.266 87.518 139.026C87.518 137.786 86.5431 136.781 85.3404 136.781C84.1378 136.781 83.1628 137.786 83.1628 139.026C83.1628 140.266 84.1378 141.271 85.3404 141.271Z" fill="#93C3FF"/>
<path d="M78.2372 163.72C79.4398 163.72 80.4147 162.715 80.4147 161.475C80.4147 160.235 79.4398 159.23 78.2372 159.23C77.0345 159.23 76.0596 160.235 76.0596 161.475C76.0596 162.715 77.0345 163.72 78.2372 163.72Z" fill="#93C3FF"/>
<path d="M85.3404 163.72C86.5431 163.72 87.518 162.715 87.518 161.475C87.518 160.235 86.5431 159.23 85.3404 159.23C84.1378 159.23 83.1628 160.235 83.1628 161.475C83.1628 162.715 84.1378 163.72 85.3404 163.72Z" fill="#93C3FF"/>
<path d="M234.122 243H7.59721C7.11228 243 6.71948 242.823 6.71948 242.604C6.71948 242.385 7.11228 242.208 7.59721 242.208H234.122C234.607 242.208 235 242.385 235 242.604C235 242.823 234.607 243 234.122 243Z" fill="#3F3D56"/>
<path d="M178.156 159.206C178.311 159.279 178.459 159.364 178.601 159.462L192.752 153.235L193.257 149.392L198.911 149.356L198.577 158.171L179.9 163.263C179.86 163.397 179.813 163.528 179.758 163.656C179.488 164.25 179.054 164.749 178.51 165.089C177.966 165.429 177.337 165.597 176.701 165.569C176.065 165.542 175.451 165.322 174.936 164.936C174.422 164.551 174.029 164.017 173.807 163.402C173.586 162.787 173.546 162.118 173.692 161.48C173.838 160.841 174.163 160.261 174.628 159.813C175.092 159.365 175.675 159.068 176.303 158.96C176.931 158.852 177.575 158.937 178.156 159.206Z" fill="#FFB8B8"/>
<path d="M200.968 239.079H197.1L195.26 223.697L200.968 223.698L200.968 239.079Z" fill="#FFB8B8"/>
<path d="M194.337 237.939H201.796V242.781H189.64C189.64 241.497 190.135 240.265 191.016 239.357C191.896 238.449 193.091 237.939 194.337 237.939Z" fill="#2F2E41"/>
<path d="M216.011 237.952L212.161 238.343L208.867 223.222L214.548 222.645L216.011 237.952Z" fill="#FFB8B8"/>
<path d="M209.304 237.488L216.727 236.734L217.188 241.553L205.09 242.782C205.029 242.149 205.09 241.51 205.269 240.902C205.448 240.293 205.742 239.727 206.133 239.235C206.525 238.744 207.006 238.336 207.55 238.037C208.094 237.737 208.69 237.551 209.304 237.488Z" fill="#2F2E41"/>
<path d="M202.044 133.078C206.324 133.078 209.793 129.502 209.793 125.089C209.793 120.677 206.324 117.101 202.044 117.101C197.765 117.101 194.295 120.677 194.295 125.089C194.295 129.502 197.765 133.078 202.044 133.078Z" fill="#FFB8B8"/>
<path d="M196.235 235.968C195.903 235.969 195.581 235.849 195.326 235.629C195.071 235.409 194.9 235.103 194.842 234.766C192.84 223.308 186.296 185.844 186.139 184.806C186.136 184.782 186.134 184.758 186.135 184.734V181.94C186.134 181.839 186.165 181.739 186.223 181.657L187.087 180.408C187.128 180.348 187.182 180.299 187.245 180.264C187.307 180.228 187.377 180.208 187.448 180.205C192.377 179.967 208.518 179.269 209.298 180.273C210.081 181.283 209.805 184.341 209.741 184.944L209.744 185.007L216.996 232.82C217.053 233.201 216.962 233.59 216.743 233.903C216.523 234.215 216.193 234.426 215.824 234.49L211.295 235.259C210.957 235.315 210.612 235.244 210.321 235.06C210.03 234.875 209.813 234.589 209.709 234.253C208.308 229.638 203.611 214.113 201.983 208.106C201.973 208.068 201.949 208.035 201.917 208.013C201.885 207.992 201.847 207.983 201.809 207.988C201.771 207.994 201.736 208.014 201.712 208.043C201.687 208.073 201.673 208.112 201.674 208.151C201.755 213.878 201.951 228.488 202.019 233.534L202.027 234.078C202.03 234.446 201.899 234.801 201.66 235.074C201.42 235.348 201.091 235.518 200.735 235.553L196.368 235.962C196.323 235.966 196.279 235.968 196.235 235.968Z" fill="#2F2E41"/>
<path d="M197.126 136.22C195.774 137.049 194.965 138.572 194.501 140.121C193.641 142.991 193.123 145.957 192.96 148.955L192.469 157.933L186.394 181.733C191.659 186.326 194.696 185.282 201.784 181.525C208.872 177.768 209.682 182.778 209.682 182.778L211.099 162.527L213.124 140.398C212.67 139.834 212.155 139.324 211.59 138.878C209.719 137.377 207.541 136.334 205.221 135.828C202.902 135.321 200.501 135.363 198.2 135.952L197.126 136.22Z" fill="#93C3FF"/>
<path d="M195.153 164.013C195.317 164.076 195.475 164.152 195.627 164.241L209.619 157.021L209.851 153.11L215.622 152.7L215.932 161.616L197.233 167.991C197.081 168.666 196.732 169.278 196.234 169.744C195.737 170.21 195.113 170.508 194.446 170.6C193.78 170.692 193.102 170.572 192.503 170.257C191.904 169.942 191.413 169.446 191.094 168.836C190.774 168.226 190.643 167.53 190.717 166.841C190.791 166.152 191.067 165.502 191.507 164.979C191.948 164.455 192.533 164.082 193.184 163.91C193.835 163.737 194.522 163.773 195.153 164.013Z" fill="#FFB8B8"/>
<path d="M213.023 140.499C216.465 141.752 217.072 155.323 217.072 155.323C213.022 153.026 208.162 156.784 208.162 156.784C208.162 156.784 207.149 153.235 205.934 148.642C205.567 147.35 205.523 145.984 205.807 144.669C206.09 143.355 206.691 142.137 207.554 141.126C207.554 141.126 209.58 139.246 213.023 140.499Z" fill="#93C3FF"/>
<path d="M208.993 127.202C208.027 126.406 206.71 127.853 206.71 127.853L205.937 120.686C205.937 120.686 201.11 121.282 198.02 120.487C194.931 119.692 194.448 123.374 194.448 123.374C194.289 121.887 194.257 120.388 194.352 118.895C194.545 117.103 197.055 115.312 201.496 114.117C205.937 112.922 208.254 118.099 208.254 118.099C211.344 119.691 209.958 127.998 208.993 127.202Z" fill="#2F2E41"/>
</g>
<defs>
<clipPath id="clip0_529_3192">
<rect width="235" height="243" fill="white"/>
</clipPath>
</defs>
</svg>
