<svg xmlns="http://www.w3.org/2000/svg" enable-background="new 0 0 24 24" viewBox="0 0 24 24" id="cc-stripe">
  <path d="M22,21.25c1.104,0,2-0.888,2-1.982V4.732c0-1.094-0.896-1.982-2-1.982H2c-1.104,0-2,0.888-2,1.982v14.536c0,1.094,0.896,1.982,2,1.982H22z M20.529,9.348c1.404,0,2.138,1.186,2.138,2.688c0,0.145-0.012,0.449-0.017,0.532h-2.896c0.067,0.685,0.575,0.888,1.15,0.888c0.587,0,1.05-0.123,1.454-0.326v1.181c-0.405,0.219-0.933,0.38-1.642,0.38c-1.442,0-2.45-0.896-2.45-2.663C18.267,10.533,19.121,9.348,20.529,9.348z M13.438,9.448h1.304l0.075,0.363c0.204-0.186,0.579-0.458,1.158-0.458c1.037,0,2.017,0.929,2.017,2.635h0.001c0,1.862-0.966,2.705-2.025,2.709c-0.517,0-0.834-0.219-1.046-0.372l-0.004,1.66l-1.479,0.31V9.448z M11.392,7.808l1.487-0.314v1.194l-1.487,0.314V7.808z M11.392,9.448h1.487v5.141h-1.487V9.448z M8.434,9.448h1.279l0.092,0.433c0.346-0.632,1.037-0.504,1.233-0.433h0.004v1.351c-0.188-0.062-0.779-0.149-1.129,0.306v3.485H8.434V9.448z M5.391,8.481l1.446-0.306v1.272h1.121v1.251H6.833v2.085c0,0.863,0.938,0.595,1.125,0.521v1.194c-0.196,0.107-0.554,0.194-1.037,0.194c-0.879,0-1.538-0.64-1.538-1.507L5.391,8.481z M1.333,11.012c0-1.04,0.8-1.66,2-1.66c0.492,0,0.98,0.075,1.471,0.269v1.38c-0.451-0.24-1.021-0.376-1.471-0.376c-0.312,0-0.504,0.091-0.504,0.318c0,0.661,2.262,0.347,2.262,2.094l0.001-0.001c0,1.057-0.845,1.656-2.079,1.664c-0.508,0-1.067-0.1-1.617-0.335v-1.4c0.5,0.264,1.129,0.467,1.62,0.467c0.329,0,0.566-0.087,0.566-0.359C3.583,12.371,1.333,12.635,1.333,11.012z"></path>
  <path d="M15.625 13.4c.547 0 .913-.591.913-1.379 0-.768-.375-1.371-.913-1.367-.341 0-.555.12-.708.289l.008 2.18C15.071 13.276 15.279 13.4 15.625 13.4zM20.516 10.547c-.371 0-.779.277-.779.937h1.529C21.266 10.823 20.878 10.547 20.516 10.547z"></path>
  <polygon points="20.516 10.546 20.516 10.547 20.516 10.546"></polygon>
</svg>
