<svg width="28" height="28" viewBox="0 0 28 28" fill="none" xmlns="http://www.w3.org/2000/svg">
<path d="M14.65 26.9997H12.5557C7.1087 26.9997 4.3852 26.9997 2.6926 25.3682C1 23.7354 1 21.1095 1 15.8575V8.79993H27V12.0499" stroke="black" stroke-width="2" stroke-linecap="round" stroke-linejoin="round"/>
<path d="M21.8 19.1998H21.8117M1 8.7999L2.2506 5.79954C3.2191 3.47257 3.704 2.31038 4.6868 1.65519C5.6696 1 6.928 1 9.45 1H18.55C21.0707 1 22.3304 1 23.3132 1.65519C24.296 2.31038 24.7809 3.47387 25.7494 5.79954L27 8.7999M14 8.7999V1M11.4 13.9998H14M21.8 13.9998C18.927 13.9998 16.6 16.3515 16.6 19.2518C16.6 20.9106 17.25 22.2001 18.55 23.3532C19.4665 24.1644 20.5767 25.5138 21.2423 26.6071C21.5621 27.131 22.0145 27.131 22.3577 26.6071C23.0571 25.5346 24.1335 24.1644 25.05 23.3532C26.35 22.2001 27 20.9106 27 19.2518C27 16.3528 24.673 13.9998 21.8 13.9998Z" stroke="black" stroke-width="2" stroke-linecap="round" stroke-linejoin="round"/>
</svg>
