<svg width="20" height="19" viewBox="0 0 20 19" fill="none" xmlns="http://www.w3.org/2000/svg">
<path d="M4.52774 5H3.5403C3.01653 5 2.51422 5.21071 2.14386 5.58579C1.7735 5.96086 1.56543 6.46957 1.56543 7V16C1.56543 16.5304 1.7735 17.0391 2.14386 17.4142C2.51422 17.7893 3.01653 18 3.5403 18H12.4272C12.951 18 13.4533 17.7893 13.8237 17.4142C14.194 17.0391 14.4021 16.5304 14.4021 16V15" stroke="#352F36" stroke-width="2" stroke-linecap="round" stroke-linejoin="round"/>
<path d="M13.415 3.00011L16.3773 6.00011M17.7449 4.58511C18.1338 4.19126 18.3523 3.65709 18.3523 3.10011C18.3523 2.54312 18.1338 2.00895 17.7449 1.61511C17.356 1.22126 16.8285 1 16.2786 1C15.7286 1 15.2011 1.22126 14.8122 1.61511L6.50293 10.0001V13.0001H9.46524L17.7449 4.58511Z" stroke="#352F36" stroke-width="2" stroke-linecap="round" stroke-linejoin="round"/>
</svg>
