<svg width="21" height="21" viewBox="0 0 21 21" fill="none" xmlns="http://www.w3.org/2000/svg">
<path d="M6.25677 15.719C6.23167 15.3786 6.13832 15.0059 5.76786 14.6628C5.76786 14.6622 5.76721 14.6622 5.76622 14.6615C5.75113 14.6474 5.73582 14.6336 5.72029 14.62C5.71799 14.6187 5.71668 14.6167 5.71495 14.6156C5.20226 14.1404 4.79268 13.2269 4.79268 12.2571C4.79268 10.9051 5.38264 7.06237 5.5102 7.06237C5.61127 7.06237 5.61323 8.91575 5.5463 10.658C5.49978 11.8682 5.67615 12.3447 5.96056 12.3447C6.33946 12.3447 6.4 11.1269 6.43913 9.75788C6.47128 8.6308 6.56832 7.07086 6.64593 7.06237H6.64625C6.76741 7.06237 6.86749 8.61248 6.89998 9.74231C6.94017 11.1453 7.03582 12.3101 7.35238 12.3101C7.68461 12.3101 7.78575 11.7713 7.76229 10.5752C7.73358 9.11519 7.73317 7.06237 7.83423 7.06237C7.96179 7.06237 8.3945 8.41138 8.49885 12.2571C8.52526 13.2262 8.08927 14.1401 7.57624 14.6156C7.5746 14.617 7.57321 14.619 7.57091 14.62C7.55549 14.6336 7.53941 14.6479 7.52497 14.6615C7.5244 14.6622 7.52333 14.6622 7.52333 14.6628C7.15255 15.0059 7.05953 15.3786 7.0341 15.719C6.9939 16.2625 6.97586 16.9589 6.97791 17.7426L9.89797 20.7068C9.93882 19.4149 9.9348 18.1964 9.87861 17.2765C9.85753 16.9328 9.80561 16.5336 9.74638 16.2153C9.728 16.1137 9.66377 16.0199 9.66377 15.9395V4.74117C9.66377 3.78604 10.5448 3.33454 11.3553 5.43116C12.1659 7.52778 11.9396 14.9842 11.9396 15.5145C11.9396 15.627 11.8436 15.7598 11.6859 15.8905C11.6231 15.932 11.5682 15.9738 11.5153 16.0166C11.0297 16.412 10.9604 16.8679 10.935 17.2765C10.8745 18.2658 10.8256 19.6 10.8129 21L14.8373 16.9147C14.8316 16.4347 14.8185 16.0029 14.7965 15.6432C14.7881 15.5053 14.7543 15.3651 14.7285 15.2173C14.6555 14.7987 14.1453 14.456 13.8501 14.155C13.2765 13.5704 12.9077 12.5876 12.9077 11.4794C12.9077 9.6801 13.8903 7.40245 15.1023 7.40245C16.3143 7.40245 17.2972 9.67977 17.2972 11.4794C17.2972 12.5876 16.9285 13.5707 16.3549 14.155C16.0593 14.456 15.549 14.7987 15.4761 15.2173C15.4503 15.3653 15.4165 15.5054 15.4082 15.6432C15.394 15.8841 15.3839 16.1252 15.3777 16.3664L21 10.6588L10.5 0L0 10.6588L6.30902 17.0632C6.30197 16.556 6.28491 16.0994 6.25677 15.719Z" fill="#D80027"/>
</svg>
