<svg width="22" height="21" viewBox="0 0 22 21" fill="none" xmlns="http://www.w3.org/2000/svg">
<path d="M6.99627 15.719C6.97117 15.3786 6.87782 15.0059 6.50737 14.6628C6.50737 14.6622 6.50671 14.6622 6.50572 14.6615C6.49063 14.6474 6.47532 14.6336 6.45979 14.62C6.45749 14.6187 6.45618 14.6167 6.45445 14.6156C5.94176 14.1404 5.53218 13.2269 5.53218 12.2571C5.53218 10.9051 6.12215 7.06237 6.2497 7.06237C6.35077 7.06237 6.35274 8.91575 6.2858 10.658C6.23929 11.8682 6.41565 12.3447 6.70006 12.3447C7.07896 12.3447 7.1395 11.1269 7.17863 9.75788C7.21078 8.6308 7.30783 7.07086 7.38543 7.06237H7.38576C7.50692 7.06237 7.60699 8.61248 7.63948 9.74231C7.67967 11.1453 7.77532 12.3101 8.09188 12.3101C8.42411 12.3101 8.52525 11.7713 8.50179 10.5752C8.47308 9.11519 8.47267 7.06237 8.57373 7.06237C8.70129 7.06237 9.13401 8.41138 9.23835 12.2571C9.26476 13.2262 8.82877 14.1401 8.31574 14.6156C8.3141 14.617 8.31271 14.619 8.31041 14.62C8.29499 14.6336 8.27891 14.6479 8.26447 14.6615C8.2639 14.6622 8.26283 14.6622 8.26283 14.6628C7.89205 15.0059 7.79903 15.3786 7.7736 15.719C7.7334 16.2625 7.71536 16.9589 7.71741 17.7426L10.6375 20.7068C10.6783 19.4149 10.6743 18.1964 10.6181 17.2765C10.597 16.9328 10.5451 16.5336 10.4859 16.2153C10.4675 16.1137 10.4033 16.0199 10.4033 15.9395V4.74117C10.4033 3.78604 11.2843 3.33454 12.0948 5.43116C12.9054 7.52778 12.6792 14.9842 12.6792 15.5145C12.6792 15.627 12.5831 15.7598 12.4254 15.8905C12.3626 15.932 12.3077 15.9738 12.2548 16.0166C11.7692 16.412 11.6999 16.8679 11.6745 17.2765C11.614 18.2658 11.5651 19.6 11.5524 21L15.5768 16.9147C15.5711 16.4347 15.558 16.0029 15.536 15.6432C15.5276 15.5053 15.4938 15.3651 15.468 15.2173C15.395 14.7987 14.8848 14.456 14.5896 14.155C14.016 13.5704 13.6472 12.5876 13.6472 11.4794C13.6472 9.6801 14.6298 7.40245 15.8418 7.40245C17.0538 7.40245 18.0367 9.67977 18.0367 11.4794C18.0367 12.5876 17.668 13.5707 17.0944 14.155C16.7988 14.456 16.2885 14.7987 16.2156 15.2173C16.1898 15.3653 16.156 15.5054 16.1477 15.6432C16.1335 15.8841 16.1234 16.1252 16.1172 16.3664L21.7395 10.6588L11.2395 0L0.739502 10.6588L7.04853 17.0632C7.04147 16.556 7.02441 16.0994 6.99627 15.719Z" fill="#419F7D"/>
</svg>
