<svg width="317" height="7" viewBox="0 0 317 7" fill="none" xmlns="http://www.w3.org/2000/svg">
<path d="M1.15723 6L7.46482 1L13.7724 6L20.08 1L26.3876 6L32.6952 1L39.0028 6L45.3104 1L51.618 6L57.9255 1L64.2331 6L70.5407 1L76.8483 6L83.1559 1L89.4635 6L95.7711 1L102.079 6L108.386 1L114.694 6L121.001 1L127.309 6L133.617 1L139.924 6L146.232 1L152.539 6L158.847 1L165.155 6L171.462 1L177.77 6L184.077 1L190.385 6L196.693 1L203 6L209.308 1L215.615 6L221.923 1L228.231 6L234.538 1L240.846 6L247.153 1L253.461 6L259.768 1L266.076 6L272.384 1L278.691 6L284.999 1L291.306 6L297.614 1L303.922 6L310.229 1L316.537 6" stroke="#F5F5F5" stroke-width="1.5"/>
</svg>
